<svg id="Layer_1" data-name="Layer 1" xmlns="http://www.w3.org/2000/svg" viewBox="0 0 186.06 186.06"><defs><style>.cls-1{fill:none;stroke:#fff;stroke-miterlimit:10;stroke-width:4px;}.cls-2{fill:#fff;}</style></defs><title>individual-icon</title><circle class="cls-1" cx="93.03" cy="93.03" r="91.03"/><path class="cls-2" d="M122,78.07c-1.8,10.8-9.61,27.67-21.17,27.67-12.43,0-19.43-18.25-21.17-27.67-.92-5-2.62-14.24,3.33-21.19,5.62-6.56,14.73-6.49,17.83-6.48s11.44,0,17,6C124.49,63.4,122.78,73.71,122,78.07Z" transform="translate(-7.85 -6.97)"/><path class="cls-2" d="M77.65,64.21c-2.57,1.07-2.06,5.74-1.92,7.86.12,1.89.21,7.18,3.2,7s2.8-4.84,2.75-6.83.07-7.59-2.55-8.18c-1.22-.27-3.43,1.53-1.68,1.92,1.06.24,1.2,4.9,1.25,5.66a22.07,22.07,0,0,1,0,3.42,16.82,16.82,0,0,0-.25,2.12l1.48-.13c-1.06-.24-1.2-4.9-1.25-5.66a22.07,22.07,0,0,1,0-3.42,16.82,16.82,0,0,0,.25-2.12C80.75,65.12,79.13,63.6,77.65,64.21Z" transform="translate(-7.85 -6.97)"/><path class="cls-2" d="M123,64.22c-2.86.64-3,5.09-3.12,7.35-.11,1.83-.69,7.05,2,7.39s3.45-3.62,3.7-5.56,1.15-8.1-1.25-9.1c-1-.4-3.57,1-2.28,1.5s.85,5,.79,6a22.67,22.67,0,0,1-.45,3.52A12.62,12.62,0,0,1,122,76.7q-.78,1.11.16.53l1.36.07c-1.33-.55-.85-5-.79-6a22.67,22.67,0,0,1,.45-3.52,12.62,12.62,0,0,1,.35-1.34q.78-1.11-.16-.53C125.19,65.47,124.74,63.83,123,64.22Z" transform="translate(-7.85 -6.97)"/><path class="cls-2" d="M81,53.23c-.82,2.37-1.27,3.17-1.24,5.78l.09,7.36c0,1.42,2.7.84,2.92-.28C83.86,60.73,85.11,55.36,86,50c.25-1.41-2.42-.68-2.83,0a39,39,0,0,0-1.94,3.8l2.7-.5,0-.36c.15-1.35-2.79-.89-2.92.28a1.54,1.54,0,0,0,.3,1.3c.5.82,2.38.24,2.7-.5A39,39,0,0,1,86,50.22l-2.83,0c-.94,5.39-2.19,10.75-3.26,16.12l2.92-.28-.09-7.36a14.93,14.93,0,0,1,1.24-5.78C84.34,51.77,81.4,52.11,81,53.23Z" transform="translate(-7.85 -6.97)"/><path class="cls-2" d="M79.37,66l0,.53c0,.39,2.81,0,2.9-.78a3.62,3.62,0,0,0,0-.53c0-.43-2.92,0-2.9.78a3.62,3.62,0,0,1,0,.53l2.9-.78,0-.53C82.28,64.83,79.4,65.16,79.37,66Z" transform="translate(-7.85 -6.97)"/><path class="cls-2" d="M78.52,63.18a16.91,16.91,0,0,1,.86,2.8c.16,1.1,2.87.45,2.91-.54l.37-9.24c.05-1.32-2.46-.77-2.82.06-1,2.23-1.83,4.47-1.31,6.93.25,1.16,3.15.42,2.9-.78-.45-2.11.29-4.05,1.14-6l-2.82.06-.37,9.24,2.91-.54a17,17,0,0,0-.86-2.8C81,61.24,78.15,62,78.52,63.18Z" transform="translate(-7.85 -6.97)"/><path class="cls-2" d="M123,61.79c-.29-1.74.17-3.39-1.5-4.31-.54-.3-2.57,0-2.61.87l0,.32,2.89-.58a17.23,17.23,0,0,0-2-6.7c-1-1.52-2.52-2.34-3.6-3.73-.48-.62-2.07-.06-2.5.35l-1,1,2.6-.19c-.65-1.6-3.15-5.47-4.92-2.13l2.69-.55c-1.37-1.62-2.05-3.21-4.5-1.74l2.24-.17-.12-.19c-.36-.58-1.86-.05-2.24.17l-.7.41H110l-.4-.83c-.42-.89-2.38-.22-2.79.38l-.49.72,2.69-.55A4.79,4.79,0,0,1,107.22,41c-.24-1-2.43-.07-2.79.38l-1.2,1.54L106,42.5l-.15-1c-.15-1-2.46,0-2.79.38q-.74.86-1.41,1.76l2.79-.38a3,3,0,0,0-.7-1.65c-.51-.78-2.52.09-2.79.75s-.55,1.34-.82,2l2-.29.17-.65c.09-1.1-2.73-.5-2.89.39l-.16.89,2.89-.58a1.54,1.54,0,0,1-.18-.68c-.24-1-2.43-.06-2.79.38h0l2.79-.38-.56-3.18c-.19-1.05-2.44,0-2.79.38l-.4.41,2.79-.38v-.08c0-1-2.64,0-2.89.58a16.37,16.37,0,0,1-1.71,1.52l2.6-.19a7.75,7.75,0,0,0-.35-2.7c-.22-1-2.45-.08-2.79.38l-1.63,2.19L97.07,42l-.22-.94c-.22-1-2.47-.13-2.79.38a12.33,12.33,0,0,1-2,2.77l2.79-.19A15.05,15.05,0,0,0,95,40.76c0-1-2.51-.05-2.79.38C91,43,89.88,45,88.79,46.93l2.79-.38-.82-1.45c-.53-.94-2.53-.18-2.89.58a23,23,0,0,0-1.5,4l2.89-.58-.13-3c0-.91-2.72-.16-2.89.58a26,26,0,0,1-2.71,7.16c-.14.26-.17.57.18.68l35.09,11.13c.79.25,2.25,0,2.61-.87h0l-2.89.39,0,.69c-.06,1.15,2.44.39,2.79-.19A10.92,10.92,0,0,0,123,62c.21-1-2.7-.54-2.89.39a10.13,10.13,0,0,1-1.47,3.28l2.79-.19,0-.69c.06-1.2-2.58-.36-2.89.39h0l2.61-.87L101.24,58l-12-3.79c-.54-.17-2.62-.47-3-.94.17.24,2.58-6,2.81-7l-2.89.58.13,3c0,.94,2.7.12,2.89-.58a23,23,0,0,1,1.5-4l-2.89.58.82,1.45c.45.81,2.41.31,2.79-.38,1.09-2,2.23-3.89,3.44-5.78l-2.79.38L92,44.44c-.15,1.22,2.42.24,2.79-.19a12.33,12.33,0,0,0,2-2.77L94,41.87l.22.94c.23,1,2.44.08,2.79-.38l1.63-2.19-2.79.38a7.75,7.75,0,0,1,.35,2.7c0,.93,2.28.08,2.6-.19.8-.67,1.88-1.32,2.3-2.31l-2.89.58v.08c0,1,2.5-.08,2.79-.38l.4-.41-2.79.38.56,3.18c.18,1,2.45,0,2.79-.38h0l-2.79.38a1.54,1.54,0,0,0,.18.68c.42.83,2.73.28,2.89-.58l.16-.89-2.89.39-.08,1c0,.26.07.34.28.48,2.29,1.43,3.61-1.95,4.19-3.34l-2.79.75.5,1.32c.23,1,2.44.07,2.79-.38q.68-.9,1.41-1.76L103,42.3l.15,1c.15,1,2.47,0,2.79-.38l1.2-1.54-2.79.38c.39,1.58.67,2.71,1.95,3.69a2.28,2.28,0,0,0,2.69-.55l.49-.72-2.79.38.4.83c.36.76,1.81.3,2.34,0l.7-.41-2.24.17.12.19c.36.58,1.86.06,2.24-.17-1.32.79-.46,1.52,0,2.08s2.36.08,2.69-.55q-1.9,1.29-.66,2.9c.34.84,2.14.25,2.6-.19l1-1-2.5.35c1.35,1.74,3,2.45,4,4.57a19.26,19.26,0,0,1,1.41,5.54c.14.89,2.85.22,2.89-.58l0-.32-2.61.87c1.07.59.75,2.72.92,3.73S123.13,62.8,123,61.79Z" transform="translate(-7.85 -6.97)"/><path class="cls-2" d="M111.51,49.06l0,0,2.6-.19a1.05,1.05,0,0,1-.16-.43l-2.8.94.33.25a2.06,2.06,0,0,0,1.91,0c.25-.1,1.3-.71.79-1.1l-.33-.25a1.93,1.93,0,0,0-1.72-.05c-.43.15-1.12.44-1.08,1a1.05,1.05,0,0,0,.16.43c.42.81,2.09.28,2.6-.19a4,4,0,0,0,.36-.38c.44-.53-.37-.78-.77-.78A2.56,2.56,0,0,0,111.51,49.06Z" transform="translate(-7.85 -6.97)"/><path class="cls-2" d="M131.67,185.69a96.45,96.45,0,0,1-64.5-.46c-1.81-2.81-17.62-28.37-6.5-56.5,6.71-17,19.65-25.87,24.75-29a17.34,17.34,0,0,0,15,9.75c10.17.33,15.74-9.26,16-9.75,4.7,2.92,18.5,12.34,24.75,30.5C151,158.76,133.41,183.35,131.67,185.69Z" transform="translate(-7.85 -6.97)"/></svg>